<mxfile host="65bd71144e">
    <diagram id="PVtIMFSRZ2d8ftaa-ZnJ" name="Service-cluster">
        <mxGraphModel dx="1231" dy="677" grid="0" gridSize="10" guides="1" tooltips="1" connect="1" arrows="1" fold="1" page="1" pageScale="1" pageWidth="1654" pageHeight="1169" math="0" shadow="0">
            <root>
                <mxCell id="0"/>
                <mxCell id="1" style="locked=1;" parent="0"/>
                <mxCell id="83" value="Service-cluster" style="swimlane;horizontal=0;startSize=26;rounded=0;arcSize=11;" parent="1" vertex="1">
                    <mxGeometry x="126" y="240" width="394" height="256" as="geometry"/>
                </mxCell>
                <mxCell id="22" value="Untitled Layer" style="" parent="0"/>
                <mxCell id="57" style="edgeStyle=orthogonalEdgeStyle;rounded=0;orthogonalLoop=1;jettySize=auto;html=1;exitX=0;exitY=0.5;exitDx=0;exitDy=0;entryX=1;entryY=0.5;entryDx=0;entryDy=0;startArrow=classic;startFill=1;" parent="22" source="23" target="31" edge="1">
                    <mxGeometry relative="1" as="geometry"/>
                </mxCell>
                <mxCell id="77" value="N" style="edgeLabel;html=1;align=center;verticalAlign=middle;resizable=0;points=[];" parent="57" vertex="1" connectable="0">
                    <mxGeometry x="0.8295" y="1" relative="1" as="geometry">
                        <mxPoint x="-1" y="10" as="offset"/>
                    </mxGeometry>
                </mxCell>
                <mxCell id="78" value="1" style="edgeLabel;html=1;align=center;verticalAlign=middle;resizable=0;points=[];" parent="57" vertex="1" connectable="0">
                    <mxGeometry x="-0.8555" y="-2" relative="1" as="geometry">
                        <mxPoint x="-2" y="13" as="offset"/>
                    </mxGeometry>
                </mxCell>
                <mxCell id="23" value="Github&lt;br&gt;OOP&lt;br&gt;repo-helm" style="rounded=1;whiteSpace=wrap;html=1;arcSize=11;" parent="22" vertex="1">
                    <mxGeometry x="555" y="396" width="140" height="90" as="geometry"/>
                </mxCell>
                <mxCell id="24" value="Github&lt;br&gt;ODP&lt;br&gt;Infra-yggdrasill&lt;br&gt;Main" style="rounded=1;whiteSpace=wrap;html=1;arcSize=11;" parent="22" vertex="1">
                    <mxGeometry x="161" y="89" width="140" height="90" as="geometry"/>
                </mxCell>
                <mxCell id="25" value="Nidhogg&lt;br&gt;Argocd" style="rounded=1;whiteSpace=wrap;html=1;" parent="22" vertex="1">
                    <mxGeometry x="176" y="267" width="110" height="60" as="geometry"/>
                </mxCell>
                <mxCell id="26" style="edgeStyle=orthogonalEdgeStyle;rounded=0;orthogonalLoop=1;jettySize=auto;html=1;exitX=0.5;exitY=1;exitDx=0;exitDy=0;startArrow=classic;startFill=1;" parent="22" source="24" target="25" edge="1">
                    <mxGeometry relative="1" as="geometry"/>
                </mxCell>
                <mxCell id="79" value="1" style="edgeLabel;html=1;align=center;verticalAlign=middle;resizable=0;points=[];" parent="26" vertex="1" connectable="0">
                    <mxGeometry x="0.7341" y="2" relative="1" as="geometry">
                        <mxPoint x="8" y="3" as="offset"/>
                    </mxGeometry>
                </mxCell>
                <mxCell id="56" style="edgeStyle=orthogonalEdgeStyle;rounded=0;orthogonalLoop=1;jettySize=auto;html=1;exitX=0.5;exitY=0;exitDx=0;exitDy=0;entryX=0.5;entryY=1;entryDx=0;entryDy=0;startArrow=classic;startFill=1;" parent="22" source="27" target="24" edge="1">
                    <mxGeometry relative="1" as="geometry"/>
                </mxCell>
                <mxCell id="80" value="1" style="edgeLabel;html=1;align=center;verticalAlign=middle;resizable=0;points=[];" parent="56" vertex="1" connectable="0">
                    <mxGeometry x="-0.9433" relative="1" as="geometry">
                        <mxPoint x="-9" as="offset"/>
                    </mxGeometry>
                </mxCell>
                <mxCell id="81" value="1" style="edgeLabel;html=1;align=center;verticalAlign=middle;resizable=0;points=[];" parent="56" vertex="1" connectable="0">
                    <mxGeometry x="0.9401" y="-2" relative="1" as="geometry">
                        <mxPoint x="8" y="-1" as="offset"/>
                    </mxGeometry>
                </mxCell>
                <mxCell id="27" value="Yggdrasil&lt;br&gt;App of apps" style="rounded=1;whiteSpace=wrap;html=1;" parent="22" vertex="1">
                    <mxGeometry x="374" y="267" width="120" height="60" as="geometry"/>
                </mxCell>
                <mxCell id="28" style="edgeStyle=orthogonalEdgeStyle;rounded=0;orthogonalLoop=1;jettySize=auto;html=1;exitX=1;exitY=0.5;exitDx=0;exitDy=0;entryX=0;entryY=0.5;entryDx=0;entryDy=0;startArrow=classic;startFill=1;" parent="22" source="25" target="27" edge="1">
                    <mxGeometry relative="1" as="geometry"/>
                </mxCell>
                <mxCell id="74" value="1" style="edgeLabel;html=1;align=center;verticalAlign=middle;resizable=0;points=[];" parent="28" vertex="1" connectable="0">
                    <mxGeometry x="-0.8247" y="1" relative="1" as="geometry">
                        <mxPoint y="14" as="offset"/>
                    </mxGeometry>
                </mxCell>
                <mxCell id="75" value="1" style="edgeLabel;html=1;align=center;verticalAlign=middle;resizable=0;points=[];" parent="28" vertex="1" connectable="0">
                    <mxGeometry x="0.774" y="2" relative="1" as="geometry">
                        <mxPoint y="15" as="offset"/>
                    </mxGeometry>
                </mxCell>
                <mxCell id="51" style="edgeStyle=orthogonalEdgeStyle;rounded=0;orthogonalLoop=1;jettySize=auto;html=1;exitX=0.5;exitY=0;exitDx=0;exitDy=0;entryX=0.5;entryY=1;entryDx=0;entryDy=0;startArrow=classic;startFill=1;" parent="22" source="31" target="27" edge="1">
                    <mxGeometry relative="1" as="geometry">
                        <Array as="points"/>
                    </mxGeometry>
                </mxCell>
                <mxCell id="52" value="1" style="edgeLabel;html=1;align=center;verticalAlign=middle;resizable=0;points=[];" parent="51" vertex="1" connectable="0">
                    <mxGeometry x="0.7474" y="2" relative="1" as="geometry">
                        <mxPoint x="-12" y="1" as="offset"/>
                    </mxGeometry>
                </mxCell>
                <mxCell id="53" value="N" style="edgeLabel;html=1;align=center;verticalAlign=middle;resizable=0;points=[];" parent="51" vertex="1" connectable="0">
                    <mxGeometry x="-0.8681" y="-1" relative="1" as="geometry">
                        <mxPoint x="-15" y="-5" as="offset"/>
                    </mxGeometry>
                </mxCell>
                <mxCell id="31" value="* Services" style="rounded=1;whiteSpace=wrap;html=1;" parent="22" vertex="1">
                    <mxGeometry x="374" y="411" width="120" height="60" as="geometry"/>
                </mxCell>
            </root>
        </mxGraphModel>
    </diagram>
    <diagram name="Environment-cluster" id="_vx1tRXI8x21z-NarlQq">
        <mxGraphModel dx="1197" dy="677" grid="0" gridSize="10" guides="1" tooltips="1" connect="1" arrows="1" fold="1" page="1" pageScale="1" pageWidth="1654" pageHeight="1169" background="none" math="0" shadow="0">
            <root>
                <mxCell id="Ke6LJ-1d-b8HfqptMPUt-0"/>
                <mxCell id="Ke6LJ-1d-b8HfqptMPUt-1" style="locked=1;" parent="Ke6LJ-1d-b8HfqptMPUt-0"/>
                <mxCell id="Ke6LJ-1d-b8HfqptMPUt-2" value="Service-cluster" style="swimlane;horizontal=0;startSize=26;rounded=0;arcSize=11;" parent="Ke6LJ-1d-b8HfqptMPUt-1" vertex="1">
                    <mxGeometry x="545" y="212" width="405" height="221" as="geometry"/>
                </mxCell>
                <mxCell id="cOrPOYBAf4j3ii7hYCuP-1" value="Environment-cluster" style="swimlane;horizontal=0;" parent="Ke6LJ-1d-b8HfqptMPUt-1" vertex="1">
                    <mxGeometry x="545" y="569" width="600" height="407" as="geometry"/>
                </mxCell>
                <mxCell id="cOrPOYBAf4j3ii7hYCuP-4" value="Github" style="swimlane;horizontal=0;" parent="Ke6LJ-1d-b8HfqptMPUt-1" vertex="1">
                    <mxGeometry x="48" y="326" width="257" height="382" as="geometry"/>
                </mxCell>
                <mxCell id="Ke6LJ-1d-b8HfqptMPUt-3" value="service-cluster" style="locked=1;" parent="Ke6LJ-1d-b8HfqptMPUt-0"/>
                <mxCell id="cOrPOYBAf4j3ii7hYCuP-14" style="edgeStyle=orthogonalEdgeStyle;rounded=0;orthogonalLoop=1;jettySize=auto;html=1;exitX=0;exitY=0.5;exitDx=0;exitDy=0;entryX=1;entryY=0.5;entryDx=0;entryDy=0;startArrow=classic;startFill=1;" parent="Ke6LJ-1d-b8HfqptMPUt-3" source="Ke6LJ-1d-b8HfqptMPUt-9" target="cOrPOYBAf4j3ii7hYCuP-6" edge="1">
                    <mxGeometry relative="1" as="geometry">
                        <Array as="points">
                            <mxPoint x="358" y="372"/>
                            <mxPoint x="358" y="430"/>
                        </Array>
                    </mxGeometry>
                </mxCell>
                <mxCell id="Ke6LJ-1d-b8HfqptMPUt-9" value="Nidhogg&lt;br&gt;Argocd" style="rounded=1;whiteSpace=wrap;html=1;" parent="Ke6LJ-1d-b8HfqptMPUt-3" vertex="1">
                    <mxGeometry x="630" y="342" width="110" height="60" as="geometry"/>
                </mxCell>
                <mxCell id="Ke6LJ-1d-b8HfqptMPUt-15" value="Yggdrasil&lt;br&gt;App of apps" style="rounded=1;whiteSpace=wrap;html=1;" parent="Ke6LJ-1d-b8HfqptMPUt-3" vertex="1">
                    <mxGeometry x="789" y="342" width="120" height="60" as="geometry"/>
                </mxCell>
                <mxCell id="Ke6LJ-1d-b8HfqptMPUt-16" style="edgeStyle=orthogonalEdgeStyle;rounded=0;orthogonalLoop=1;jettySize=auto;html=1;exitX=1;exitY=0.5;exitDx=0;exitDy=0;entryX=0;entryY=0.5;entryDx=0;entryDy=0;startArrow=classic;startFill=1;" parent="Ke6LJ-1d-b8HfqptMPUt-3" source="Ke6LJ-1d-b8HfqptMPUt-9" target="Ke6LJ-1d-b8HfqptMPUt-15" edge="1">
                    <mxGeometry relative="1" as="geometry"/>
                </mxCell>
                <mxCell id="Ke6LJ-1d-b8HfqptMPUt-17" value="N" style="edgeLabel;html=1;align=center;verticalAlign=middle;resizable=0;points=[];" parent="Ke6LJ-1d-b8HfqptMPUt-16" vertex="1" connectable="0">
                    <mxGeometry x="-0.8247" y="1" relative="1" as="geometry">
                        <mxPoint x="2" y="12" as="offset"/>
                    </mxGeometry>
                </mxCell>
                <mxCell id="Ke6LJ-1d-b8HfqptMPUt-18" value="1" style="edgeLabel;html=1;align=center;verticalAlign=middle;resizable=0;points=[];" parent="Ke6LJ-1d-b8HfqptMPUt-16" vertex="1" connectable="0">
                    <mxGeometry x="0.774" y="2" relative="1" as="geometry">
                        <mxPoint x="-1" y="14" as="offset"/>
                    </mxGeometry>
                </mxCell>
                <mxCell id="cOrPOYBAf4j3ii7hYCuP-15" style="edgeStyle=orthogonalEdgeStyle;rounded=0;orthogonalLoop=1;jettySize=auto;html=1;exitX=0;exitY=0.5;exitDx=0;exitDy=0;entryX=1;entryY=0.5;entryDx=0;entryDy=0;startArrow=classic;startFill=1;" parent="Ke6LJ-1d-b8HfqptMPUt-3" source="Ke6LJ-1d-b8HfqptMPUt-22" target="cOrPOYBAf4j3ii7hYCuP-5" edge="1">
                    <mxGeometry relative="1" as="geometry">
                        <Array as="points">
                            <mxPoint x="494" y="281"/>
                            <mxPoint x="494" y="597"/>
                        </Array>
                    </mxGeometry>
                </mxCell>
                <mxCell id="Ke6LJ-1d-b8HfqptMPUt-22" value="* Services" style="rounded=1;whiteSpace=wrap;html=1;" parent="Ke6LJ-1d-b8HfqptMPUt-3" vertex="1">
                    <mxGeometry x="630" y="251" width="110" height="60" as="geometry"/>
                </mxCell>
                <mxCell id="cOrPOYBAf4j3ii7hYCuP-17" style="edgeStyle=orthogonalEdgeStyle;rounded=0;orthogonalLoop=1;jettySize=auto;html=1;exitX=1;exitY=0.5;exitDx=0;exitDy=0;entryX=0.5;entryY=0;entryDx=0;entryDy=0;startArrow=classic;startFill=1;" parent="Ke6LJ-1d-b8HfqptMPUt-3" source="Ke6LJ-1d-b8HfqptMPUt-22" target="Ke6LJ-1d-b8HfqptMPUt-15" edge="1">
                    <mxGeometry relative="1" as="geometry">
                        <Array as="points"/>
                        <mxPoint x="722" y="324" as="sourcePoint"/>
                        <mxPoint x="907" y="265" as="targetPoint"/>
                    </mxGeometry>
                </mxCell>
                <mxCell id="cOrPOYBAf4j3ii7hYCuP-18" value="1" style="edgeLabel;html=1;align=center;verticalAlign=middle;resizable=0;points=[];" parent="cOrPOYBAf4j3ii7hYCuP-17" vertex="1" connectable="0">
                    <mxGeometry x="0.7474" y="2" relative="1" as="geometry">
                        <mxPoint x="9" y="10" as="offset"/>
                    </mxGeometry>
                </mxCell>
                <mxCell id="cOrPOYBAf4j3ii7hYCuP-19" value="N" style="edgeLabel;html=1;align=center;verticalAlign=middle;resizable=0;points=[];" parent="cOrPOYBAf4j3ii7hYCuP-17" vertex="1" connectable="0">
                    <mxGeometry x="-0.8681" y="-1" relative="1" as="geometry">
                        <mxPoint x="-5" y="9" as="offset"/>
                    </mxGeometry>
                </mxCell>
                <mxCell id="cOrPOYBAf4j3ii7hYCuP-2" value="github" style="locked=1;" parent="Ke6LJ-1d-b8HfqptMPUt-0"/>
                <mxCell id="cOrPOYBAf4j3ii7hYCuP-5" value="Github&lt;br&gt;OOP&lt;br&gt;Repo-helm" style="rounded=1;whiteSpace=wrap;html=1;arcSize=11;" parent="cOrPOYBAf4j3ii7hYCuP-2" vertex="1">
                    <mxGeometry x="120" y="552" width="140" height="90" as="geometry"/>
                </mxCell>
                <mxCell id="cOrPOYBAf4j3ii7hYCuP-6" value="Github&lt;br&gt;ODP&lt;br&gt;Infra-yggdrasill&lt;br&gt;Main" style="rounded=1;whiteSpace=wrap;html=1;arcSize=11;" parent="cOrPOYBAf4j3ii7hYCuP-2" vertex="1">
                    <mxGeometry x="118" y="385" width="140" height="90" as="geometry"/>
                </mxCell>
                <mxCell id="cOrPOYBAf4j3ii7hYCuP-25" value="Environment-cluster" style="" parent="Ke6LJ-1d-b8HfqptMPUt-0"/>
                <mxCell id="cOrPOYBAf4j3ii7hYCuP-27" style="edgeStyle=orthogonalEdgeStyle;rounded=0;orthogonalLoop=1;jettySize=auto;html=1;exitX=0.5;exitY=0;exitDx=0;exitDy=0;entryX=0.5;entryY=1;entryDx=0;entryDy=0;startArrow=classic;startFill=1;" parent="cOrPOYBAf4j3ii7hYCuP-25" source="cOrPOYBAf4j3ii7hYCuP-26" target="Ke6LJ-1d-b8HfqptMPUt-15" edge="1">
                    <mxGeometry relative="1" as="geometry"/>
                </mxCell>
                <mxCell id="cOrPOYBAf4j3ii7hYCuP-3" value="N" style="edgeLabel;html=1;align=center;verticalAlign=middle;resizable=0;points=[];" vertex="1" connectable="0" parent="cOrPOYBAf4j3ii7hYCuP-27">
                    <mxGeometry x="0.9023" y="-1" relative="1" as="geometry">
                        <mxPoint x="14" as="offset"/>
                    </mxGeometry>
                </mxCell>
                <mxCell id="cOrPOYBAf4j3ii7hYCuP-7" value="1" style="edgeLabel;html=1;align=center;verticalAlign=middle;resizable=0;points=[];" vertex="1" connectable="0" parent="cOrPOYBAf4j3ii7hYCuP-27">
                    <mxGeometry x="-0.9336" relative="1" as="geometry">
                        <mxPoint x="15" as="offset"/>
                    </mxGeometry>
                </mxCell>
                <mxCell id="cOrPOYBAf4j3ii7hYCuP-26" value="Yggdrasil&lt;br&gt;App of apps" style="rounded=1;whiteSpace=wrap;html=1;" parent="cOrPOYBAf4j3ii7hYCuP-25" vertex="1">
                    <mxGeometry x="630" y="609" width="110" height="60" as="geometry"/>
                </mxCell>
            </root>
        </mxGraphModel>
    </diagram>
    <diagram id="zLysUk2TFDXjCqPmHFiL" name="Yggdrasil">
        <mxGraphModel dx="1231" dy="677" grid="1" gridSize="10" guides="1" tooltips="1" connect="1" arrows="1" fold="1" page="1" pageScale="1" pageWidth="1654" pageHeight="1169" math="0" shadow="0">
            <root>
                <mxCell id="-FZWjLYzuK2Z7sMCpY_u-0"/>
                <mxCell id="-FZWjLYzuK2Z7sMCpY_u-1" style="locked=1;" parent="-FZWjLYzuK2Z7sMCpY_u-0"/>
                <mxCell id="-FZWjLYzuK2Z7sMCpY_u-5" value="Yggdrasil" style="swimlane;startSize=40;" parent="-FZWjLYzuK2Z7sMCpY_u-1" vertex="1">
                    <mxGeometry x="20" y="20" width="1600" height="980" as="geometry"/>
                </mxCell>
                <mxCell id="-FZWjLYzuK2Z7sMCpY_u-112" value="Application" style="swimlane;" parent="-FZWjLYzuK2Z7sMCpY_u-5" vertex="1">
                    <mxGeometry x="40" y="255" width="720" height="620" as="geometry"/>
                </mxCell>
                <mxCell id="-FZWjLYzuK2Z7sMCpY_u-29" value="Untitled Layer" style="" parent="-FZWjLYzuK2Z7sMCpY_u-0"/>
                <mxCell id="-FZWjLYzuK2Z7sMCpY_u-30" value="Config.yaml" style="swimlane;fontStyle=0;childLayout=stackLayout;horizontal=1;startSize=26;horizontalStack=0;resizeParent=1;resizeParentMax=0;resizeLast=0;collapsible=1;marginBottom=0;" parent="-FZWjLYzuK2Z7sMCpY_u-29" vertex="1">
                    <mxGeometry x="820" y="90" width="250" height="156" as="geometry">
                        <mxRectangle x="270" y="70" width="100" height="26" as="alternateBounds"/>
                    </mxGeometry>
                </mxCell>
                <mxCell id="-FZWjLYzuK2Z7sMCpY_u-31" value="Name&#10;" style="text;strokeColor=none;fillColor=none;align=left;verticalAlign=top;spacingLeft=4;spacingRight=4;overflow=hidden;rotatable=0;points=[[0,0.5],[1,0.5]];portConstraint=eastwest;" parent="-FZWjLYzuK2Z7sMCpY_u-30" vertex="1">
                    <mxGeometry y="26" width="250" height="26" as="geometry"/>
                </mxCell>
                <mxCell id="-FZWjLYzuK2Z7sMCpY_u-32" value="Namespace" style="text;strokeColor=none;fillColor=none;align=left;verticalAlign=top;spacingLeft=4;spacingRight=4;overflow=hidden;rotatable=0;points=[[0,0.5],[1,0.5]];portConstraint=eastwest;" parent="-FZWjLYzuK2Z7sMCpY_u-30" vertex="1">
                    <mxGeometry y="52" width="250" height="26" as="geometry"/>
                </mxCell>
                <mxCell id="-FZWjLYzuK2Z7sMCpY_u-33" value="Description" style="text;strokeColor=none;fillColor=none;align=left;verticalAlign=top;spacingLeft=4;spacingRight=4;overflow=hidden;rotatable=0;points=[[0,0.5],[1,0.5]];portConstraint=eastwest;" parent="-FZWjLYzuK2Z7sMCpY_u-30" vertex="1">
                    <mxGeometry y="78" width="250" height="26" as="geometry"/>
                </mxCell>
                <mxCell id="-FZWjLYzuK2Z7sMCpY_u-34" value="Project" style="text;strokeColor=none;fillColor=none;align=left;verticalAlign=top;spacingLeft=4;spacingRight=4;overflow=hidden;rotatable=0;points=[[0,0.5],[1,0.5]];portConstraint=eastwest;" parent="-FZWjLYzuK2Z7sMCpY_u-30" vertex="1">
                    <mxGeometry y="104" width="250" height="26" as="geometry"/>
                </mxCell>
                <mxCell id="-FZWjLYzuK2Z7sMCpY_u-35" value="Apps: List&lt;Application&gt;" style="text;strokeColor=none;fillColor=none;align=left;verticalAlign=top;spacingLeft=4;spacingRight=4;overflow=hidden;rotatable=0;points=[[0,0.5],[1,0.5]];portConstraint=eastwest;" parent="-FZWjLYzuK2Z7sMCpY_u-30" vertex="1">
                    <mxGeometry y="130" width="250" height="26" as="geometry"/>
                </mxCell>
                <mxCell id="-FZWjLYzuK2Z7sMCpY_u-36" value="Application" style="swimlane;fontStyle=0;childLayout=stackLayout;horizontal=1;startSize=26;horizontalStack=0;resizeParent=1;resizeParentMax=0;resizeLast=0;collapsible=1;marginBottom=0;" parent="-FZWjLYzuK2Z7sMCpY_u-29" vertex="1">
                    <mxGeometry x="240" y="380" width="200" height="104" as="geometry"/>
                </mxCell>
                <mxCell id="-FZWjLYzuK2Z7sMCpY_u-37" value="Name" style="text;strokeColor=none;fillColor=none;align=left;verticalAlign=top;spacingLeft=4;spacingRight=4;overflow=hidden;rotatable=0;points=[[0,0.5],[1,0.5]];portConstraint=eastwest;" parent="-FZWjLYzuK2Z7sMCpY_u-36" vertex="1">
                    <mxGeometry y="26" width="200" height="26" as="geometry"/>
                </mxCell>
                <mxCell id="-FZWjLYzuK2Z7sMCpY_u-38" value="Source: Obj&lt;Source&gt;" style="text;strokeColor=none;fillColor=none;align=left;verticalAlign=top;spacingLeft=4;spacingRight=4;overflow=hidden;rotatable=0;points=[[0,0.5],[1,0.5]];portConstraint=eastwest;" parent="-FZWjLYzuK2Z7sMCpY_u-36" vertex="1">
                    <mxGeometry y="52" width="200" height="26" as="geometry"/>
                </mxCell>
                <mxCell id="-FZWjLYzuK2Z7sMCpY_u-43" value="ingressRoute: Obj&lt;IngressRoute&gt;" style="text;strokeColor=none;fillColor=none;align=left;verticalAlign=top;spacingLeft=4;spacingRight=4;overflow=hidden;rotatable=0;points=[[0,0.5],[1,0.5]];portConstraint=eastwest;" parent="-FZWjLYzuK2Z7sMCpY_u-36" vertex="1">
                    <mxGeometry y="78" width="200" height="26" as="geometry"/>
                </mxCell>
                <mxCell id="-FZWjLYzuK2Z7sMCpY_u-40" style="edgeStyle=orthogonalEdgeStyle;rounded=0;orthogonalLoop=1;jettySize=auto;html=1;exitX=0;exitY=0.5;exitDx=0;exitDy=0;entryX=0.5;entryY=0;entryDx=0;entryDy=0;startArrow=none;startFill=0;" parent="-FZWjLYzuK2Z7sMCpY_u-29" source="-FZWjLYzuK2Z7sMCpY_u-35" target="-FZWjLYzuK2Z7sMCpY_u-36" edge="1">
                    <mxGeometry relative="1" as="geometry"/>
                </mxCell>
                <mxCell id="-FZWjLYzuK2Z7sMCpY_u-41" value="1" style="edgeLabel;html=1;align=center;verticalAlign=middle;resizable=0;points=[];" parent="-FZWjLYzuK2Z7sMCpY_u-40" vertex="1" connectable="0">
                    <mxGeometry x="-0.9217" relative="1" as="geometry">
                        <mxPoint as="offset"/>
                    </mxGeometry>
                </mxCell>
                <mxCell id="-FZWjLYzuK2Z7sMCpY_u-42" value="N" style="edgeLabel;html=1;align=center;verticalAlign=middle;resizable=0;points=[];" parent="-FZWjLYzuK2Z7sMCpY_u-40" vertex="1" connectable="0">
                    <mxGeometry x="0.9172" relative="1" as="geometry">
                        <mxPoint x="10" y="-2" as="offset"/>
                    </mxGeometry>
                </mxCell>
                <mxCell id="-FZWjLYzuK2Z7sMCpY_u-44" value="Source" style="swimlane;fontStyle=0;childLayout=stackLayout;horizontal=1;startSize=26;horizontalStack=0;resizeParent=1;resizeParentMax=0;resizeLast=0;collapsible=1;marginBottom=0;" parent="-FZWjLYzuK2Z7sMCpY_u-29" vertex="1">
                    <mxGeometry x="90" y="432" width="110" height="156" as="geometry"/>
                </mxCell>
                <mxCell id="-FZWjLYzuK2Z7sMCpY_u-45" value="RepoURL" style="text;strokeColor=none;fillColor=none;align=left;verticalAlign=top;spacingLeft=4;spacingRight=4;overflow=hidden;rotatable=0;points=[[0,0.5],[1,0.5]];portConstraint=eastwest;" parent="-FZWjLYzuK2Z7sMCpY_u-44" vertex="1">
                    <mxGeometry y="26" width="110" height="26" as="geometry"/>
                </mxCell>
                <mxCell id="-FZWjLYzuK2Z7sMCpY_u-46" value="TargetRevision" style="text;strokeColor=none;fillColor=none;align=left;verticalAlign=top;spacingLeft=4;spacingRight=4;overflow=hidden;rotatable=0;points=[[0,0.5],[1,0.5]];portConstraint=eastwest;" parent="-FZWjLYzuK2Z7sMCpY_u-44" vertex="1">
                    <mxGeometry y="52" width="110" height="26" as="geometry"/>
                </mxCell>
                <mxCell id="-FZWjLYzuK2Z7sMCpY_u-47" value="Path" style="text;strokeColor=none;fillColor=none;align=left;verticalAlign=top;spacingLeft=4;spacingRight=4;overflow=hidden;rotatable=0;points=[[0,0.5],[1,0.5]];portConstraint=eastwest;" parent="-FZWjLYzuK2Z7sMCpY_u-44" vertex="1">
                    <mxGeometry y="78" width="110" height="26" as="geometry"/>
                </mxCell>
                <mxCell id="-FZWjLYzuK2Z7sMCpY_u-49" value="Chart" style="text;strokeColor=none;fillColor=none;align=left;verticalAlign=top;spacingLeft=4;spacingRight=4;overflow=hidden;rotatable=0;points=[[0,0.5],[1,0.5]];portConstraint=eastwest;" parent="-FZWjLYzuK2Z7sMCpY_u-44" vertex="1">
                    <mxGeometry y="104" width="110" height="26" as="geometry"/>
                </mxCell>
                <mxCell id="-FZWjLYzuK2Z7sMCpY_u-48" value="ValuesFile" style="text;strokeColor=none;fillColor=none;align=left;verticalAlign=top;spacingLeft=4;spacingRight=4;overflow=hidden;rotatable=0;points=[[0,0.5],[1,0.5]];portConstraint=eastwest;" parent="-FZWjLYzuK2Z7sMCpY_u-44" vertex="1">
                    <mxGeometry y="130" width="110" height="26" as="geometry"/>
                </mxCell>
                <mxCell id="-FZWjLYzuK2Z7sMCpY_u-51" style="edgeStyle=orthogonalEdgeStyle;rounded=0;orthogonalLoop=1;jettySize=auto;html=1;exitX=0;exitY=0.5;exitDx=0;exitDy=0;entryX=1.012;entryY=0.088;entryDx=0;entryDy=0;startArrow=none;startFill=0;entryPerimeter=0;" parent="-FZWjLYzuK2Z7sMCpY_u-29" source="-FZWjLYzuK2Z7sMCpY_u-38" target="-FZWjLYzuK2Z7sMCpY_u-44" edge="1">
                    <mxGeometry relative="1" as="geometry"/>
                </mxCell>
                <mxCell id="-FZWjLYzuK2Z7sMCpY_u-52" value="1" style="edgeLabel;html=1;align=center;verticalAlign=middle;resizable=0;points=[];" parent="-FZWjLYzuK2Z7sMCpY_u-51" vertex="1" connectable="0">
                    <mxGeometry x="-0.9345" y="1" relative="1" as="geometry">
                        <mxPoint as="offset"/>
                    </mxGeometry>
                </mxCell>
                <mxCell id="-FZWjLYzuK2Z7sMCpY_u-53" value="1" style="edgeLabel;html=1;align=center;verticalAlign=middle;resizable=0;points=[];" parent="-FZWjLYzuK2Z7sMCpY_u-51" vertex="1" connectable="0">
                    <mxGeometry x="0.8085" relative="1" as="geometry">
                        <mxPoint as="offset"/>
                    </mxGeometry>
                </mxCell>
                <mxCell id="-FZWjLYzuK2Z7sMCpY_u-54" value="IngressRoute" style="swimlane;fontStyle=0;childLayout=stackLayout;horizontal=1;startSize=26;horizontalStack=0;resizeParent=1;resizeParentMax=0;resizeLast=0;collapsible=1;marginBottom=0;" parent="-FZWjLYzuK2Z7sMCpY_u-29" vertex="1">
                    <mxGeometry x="280" y="626.86" width="210" height="156" as="geometry"/>
                </mxCell>
                <mxCell id="-FZWjLYzuK2Z7sMCpY_u-55" value="entryPoints: List&lt;String&gt;" style="text;strokeColor=none;fillColor=none;align=left;verticalAlign=top;spacingLeft=4;spacingRight=4;overflow=hidden;rotatable=0;points=[[0,0.5],[1,0.5]];portConstraint=eastwest;" parent="-FZWjLYzuK2Z7sMCpY_u-54" vertex="1">
                    <mxGeometry y="26" width="210" height="26" as="geometry"/>
                </mxCell>
                <mxCell id="-FZWjLYzuK2Z7sMCpY_u-56" value="host: String" style="text;strokeColor=none;fillColor=none;align=left;verticalAlign=top;spacingLeft=4;spacingRight=4;overflow=hidden;rotatable=0;points=[[0,0.5],[1,0.5]];portConstraint=eastwest;" parent="-FZWjLYzuK2Z7sMCpY_u-54" vertex="1">
                    <mxGeometry y="52" width="210" height="26" as="geometry"/>
                </mxCell>
                <mxCell id="-FZWjLYzuK2Z7sMCpY_u-57" value="routes: List&lt;Rule&gt;" style="text;strokeColor=none;fillColor=none;align=left;verticalAlign=top;spacingLeft=4;spacingRight=4;overflow=hidden;rotatable=0;points=[[0,0.5],[1,0.5]];portConstraint=eastwest;" parent="-FZWjLYzuK2Z7sMCpY_u-54" vertex="1">
                    <mxGeometry y="78" width="210" height="26" as="geometry"/>
                </mxCell>
                <mxCell id="-FZWjLYzuK2Z7sMCpY_u-58" value="middlewares: List&lt;Middleware&gt;" style="text;strokeColor=none;fillColor=none;align=left;verticalAlign=top;spacingLeft=4;spacingRight=4;overflow=hidden;rotatable=0;points=[[0,0.5],[1,0.5]];portConstraint=eastwest;" parent="-FZWjLYzuK2Z7sMCpY_u-54" vertex="1">
                    <mxGeometry y="104" width="210" height="26" as="geometry"/>
                </mxCell>
                <mxCell id="-FZWjLYzuK2Z7sMCpY_u-59" value="certificate: Obj&lt;Certificate&gt;" style="text;strokeColor=none;fillColor=none;align=left;verticalAlign=top;spacingLeft=4;spacingRight=4;overflow=hidden;rotatable=0;points=[[0,0.5],[1,0.5]];portConstraint=eastwest;" parent="-FZWjLYzuK2Z7sMCpY_u-54" vertex="1">
                    <mxGeometry y="130" width="210" height="26" as="geometry"/>
                </mxCell>
                <mxCell id="-FZWjLYzuK2Z7sMCpY_u-60" style="edgeStyle=orthogonalEdgeStyle;rounded=0;orthogonalLoop=1;jettySize=auto;html=1;exitX=1;exitY=0.5;exitDx=0;exitDy=0;entryX=0.5;entryY=0;entryDx=0;entryDy=0;startArrow=none;startFill=0;" parent="-FZWjLYzuK2Z7sMCpY_u-29" source="-FZWjLYzuK2Z7sMCpY_u-43" target="-FZWjLYzuK2Z7sMCpY_u-54" edge="1">
                    <mxGeometry relative="1" as="geometry"/>
                </mxCell>
                <mxCell id="-FZWjLYzuK2Z7sMCpY_u-61" value="1" style="edgeLabel;html=1;align=center;verticalAlign=middle;resizable=0;points=[];" parent="-FZWjLYzuK2Z7sMCpY_u-60" vertex="1" connectable="0">
                    <mxGeometry x="-0.881" y="-1" relative="1" as="geometry">
                        <mxPoint as="offset"/>
                    </mxGeometry>
                </mxCell>
                <mxCell id="-FZWjLYzuK2Z7sMCpY_u-62" value="1" style="edgeLabel;html=1;align=center;verticalAlign=middle;resizable=0;points=[];" parent="-FZWjLYzuK2Z7sMCpY_u-60" vertex="1" connectable="0">
                    <mxGeometry x="0.8506" y="2" relative="1" as="geometry">
                        <mxPoint x="3" as="offset"/>
                    </mxGeometry>
                </mxCell>
                <mxCell id="-FZWjLYzuK2Z7sMCpY_u-63" value="Certificate" style="swimlane;fontStyle=0;childLayout=stackLayout;horizontal=1;startSize=26;horizontalStack=0;resizeParent=1;resizeParentMax=0;resizeLast=0;collapsible=1;marginBottom=0;" parent="-FZWjLYzuK2Z7sMCpY_u-29" vertex="1">
                    <mxGeometry x="105" y="756.86" width="110" height="52" as="geometry"/>
                </mxCell>
                <mxCell id="-FZWjLYzuK2Z7sMCpY_u-64" value="enabled: Bool" style="text;strokeColor=none;fillColor=none;align=left;verticalAlign=top;spacingLeft=4;spacingRight=4;overflow=hidden;rotatable=0;points=[[0,0.5],[1,0.5]];portConstraint=eastwest;" parent="-FZWjLYzuK2Z7sMCpY_u-63" vertex="1">
                    <mxGeometry y="26" width="110" height="26" as="geometry"/>
                </mxCell>
                <mxCell id="-FZWjLYzuK2Z7sMCpY_u-70" style="edgeStyle=orthogonalEdgeStyle;rounded=0;orthogonalLoop=1;jettySize=auto;html=1;exitX=0;exitY=0.5;exitDx=0;exitDy=0;entryX=1;entryY=0.25;entryDx=0;entryDy=0;startArrow=none;startFill=0;" parent="-FZWjLYzuK2Z7sMCpY_u-29" source="-FZWjLYzuK2Z7sMCpY_u-59" target="-FZWjLYzuK2Z7sMCpY_u-63" edge="1">
                    <mxGeometry relative="1" as="geometry"/>
                </mxCell>
                <mxCell id="-FZWjLYzuK2Z7sMCpY_u-104" value="1" style="edgeLabel;html=1;align=center;verticalAlign=middle;resizable=0;points=[];" parent="-FZWjLYzuK2Z7sMCpY_u-70" vertex="1" connectable="0">
                    <mxGeometry x="0.6557" y="-1" relative="1" as="geometry">
                        <mxPoint y="14" as="offset"/>
                    </mxGeometry>
                </mxCell>
                <mxCell id="-FZWjLYzuK2Z7sMCpY_u-71" value="Middleware" style="swimlane;fontStyle=0;childLayout=stackLayout;horizontal=1;startSize=26;horizontalStack=0;resizeParent=1;resizeParentMax=0;resizeLast=0;collapsible=1;marginBottom=0;" parent="-FZWjLYzuK2Z7sMCpY_u-29" vertex="1">
                    <mxGeometry x="90" y="665.86" width="140" height="78" as="geometry"/>
                </mxCell>
                <mxCell id="-FZWjLYzuK2Z7sMCpY_u-72" value="name: String" style="text;strokeColor=none;fillColor=none;align=left;verticalAlign=top;spacingLeft=4;spacingRight=4;overflow=hidden;rotatable=0;points=[[0,0.5],[1,0.5]];portConstraint=eastwest;" parent="-FZWjLYzuK2Z7sMCpY_u-71" vertex="1">
                    <mxGeometry y="26" width="140" height="26" as="geometry"/>
                </mxCell>
                <mxCell id="-FZWjLYzuK2Z7sMCpY_u-73" value="spec: Obj&lt;IMiddleware&gt;" style="text;strokeColor=none;fillColor=none;align=left;verticalAlign=top;spacingLeft=4;spacingRight=4;overflow=hidden;rotatable=0;points=[[0,0.5],[1,0.5]];portConstraint=eastwest;" parent="-FZWjLYzuK2Z7sMCpY_u-71" vertex="1">
                    <mxGeometry y="52" width="140" height="26" as="geometry"/>
                </mxCell>
                <mxCell id="-FZWjLYzuK2Z7sMCpY_u-78" value="Rule" style="swimlane;fontStyle=0;childLayout=stackLayout;horizontal=1;startSize=26;horizontalStack=0;resizeParent=1;resizeParentMax=0;resizeLast=0;collapsible=1;marginBottom=0;" parent="-FZWjLYzuK2Z7sMCpY_u-29" vertex="1">
                    <mxGeometry x="530" y="620" width="200" height="130" as="geometry"/>
                </mxCell>
                <mxCell id="-FZWjLYzuK2Z7sMCpY_u-79" value="kind: Rule" style="text;strokeColor=none;fillColor=none;align=left;verticalAlign=top;spacingLeft=4;spacingRight=4;overflow=hidden;rotatable=0;points=[[0,0.5],[1,0.5]];portConstraint=eastwest;" parent="-FZWjLYzuK2Z7sMCpY_u-78" vertex="1">
                    <mxGeometry y="26" width="200" height="26" as="geometry"/>
                </mxCell>
                <mxCell id="-FZWjLYzuK2Z7sMCpY_u-80" value="match: String" style="text;strokeColor=none;fillColor=none;align=left;verticalAlign=top;spacingLeft=4;spacingRight=4;overflow=hidden;rotatable=0;points=[[0,0.5],[1,0.5]];portConstraint=eastwest;" parent="-FZWjLYzuK2Z7sMCpY_u-78" vertex="1">
                    <mxGeometry y="52" width="200" height="26" as="geometry"/>
                </mxCell>
                <mxCell id="-FZWjLYzuK2Z7sMCpY_u-81" value="service: List&lt;Service&gt;" style="text;strokeColor=none;fillColor=none;align=left;verticalAlign=top;spacingLeft=4;spacingRight=4;overflow=hidden;rotatable=0;points=[[0,0.5],[1,0.5]];portConstraint=eastwest;" parent="-FZWjLYzuK2Z7sMCpY_u-78" vertex="1">
                    <mxGeometry y="78" width="200" height="26" as="geometry"/>
                </mxCell>
                <mxCell id="-FZWjLYzuK2Z7sMCpY_u-82" value="middelware: List&lt;MiddlewareRef&gt;" style="text;strokeColor=none;fillColor=none;align=left;verticalAlign=top;spacingLeft=4;spacingRight=4;overflow=hidden;rotatable=0;points=[[0,0.5],[1,0.5]];portConstraint=eastwest;" parent="-FZWjLYzuK2Z7sMCpY_u-78" vertex="1">
                    <mxGeometry y="104" width="200" height="26" as="geometry"/>
                </mxCell>
                <mxCell id="-FZWjLYzuK2Z7sMCpY_u-86" style="edgeStyle=orthogonalEdgeStyle;rounded=0;orthogonalLoop=1;jettySize=auto;html=1;exitX=0;exitY=0.5;exitDx=0;exitDy=0;entryX=0.994;entryY=0.16;entryDx=0;entryDy=0;entryPerimeter=0;startArrow=none;startFill=0;" parent="-FZWjLYzuK2Z7sMCpY_u-29" source="-FZWjLYzuK2Z7sMCpY_u-58" target="-FZWjLYzuK2Z7sMCpY_u-71" edge="1">
                    <mxGeometry relative="1" as="geometry"/>
                </mxCell>
                <mxCell id="-FZWjLYzuK2Z7sMCpY_u-102" value="N" style="edgeLabel;html=1;align=center;verticalAlign=middle;resizable=0;points=[];" parent="-FZWjLYzuK2Z7sMCpY_u-86" vertex="1" connectable="0">
                    <mxGeometry x="0.8825" relative="1" as="geometry">
                        <mxPoint x="4" y="-12" as="offset"/>
                    </mxGeometry>
                </mxCell>
                <mxCell id="-FZWjLYzuK2Z7sMCpY_u-103" value="Text" style="edgeLabel;html=1;align=center;verticalAlign=middle;resizable=0;points=[];" parent="-FZWjLYzuK2Z7sMCpY_u-86" vertex="1" connectable="0">
                    <mxGeometry x="-0.8763" relative="1" as="geometry">
                        <mxPoint as="offset"/>
                    </mxGeometry>
                </mxCell>
                <mxCell id="-FZWjLYzuK2Z7sMCpY_u-87" value="Service" style="swimlane;fontStyle=0;childLayout=stackLayout;horizontal=1;startSize=26;horizontalStack=0;resizeParent=1;resizeParentMax=0;resizeLast=0;collapsible=1;marginBottom=0;" parent="-FZWjLYzuK2Z7sMCpY_u-29" vertex="1">
                    <mxGeometry x="650" y="763.14" width="90" height="78" as="geometry"/>
                </mxCell>
                <mxCell id="-FZWjLYzuK2Z7sMCpY_u-88" value="name: String" style="text;strokeColor=none;fillColor=none;align=left;verticalAlign=top;spacingLeft=4;spacingRight=4;overflow=hidden;rotatable=0;points=[[0,0.5],[1,0.5]];portConstraint=eastwest;" parent="-FZWjLYzuK2Z7sMCpY_u-87" vertex="1">
                    <mxGeometry y="26" width="90" height="26" as="geometry"/>
                </mxCell>
                <mxCell id="-FZWjLYzuK2Z7sMCpY_u-89" value="port: Int" style="text;strokeColor=none;fillColor=none;align=left;verticalAlign=top;spacingLeft=4;spacingRight=4;overflow=hidden;rotatable=0;points=[[0,0.5],[1,0.5]];portConstraint=eastwest;" parent="-FZWjLYzuK2Z7sMCpY_u-87" vertex="1">
                    <mxGeometry y="52" width="90" height="26" as="geometry"/>
                </mxCell>
                <mxCell id="-FZWjLYzuK2Z7sMCpY_u-94" value="MiddlewareRef" style="swimlane;fontStyle=0;childLayout=stackLayout;horizontal=1;startSize=26;horizontalStack=0;resizeParent=1;resizeParentMax=0;resizeLast=0;collapsible=1;marginBottom=0;" parent="-FZWjLYzuK2Z7sMCpY_u-29" vertex="1">
                    <mxGeometry x="530" y="763.14" width="110" height="78" as="geometry"/>
                </mxCell>
                <mxCell id="-FZWjLYzuK2Z7sMCpY_u-96" value="namespace: String" style="text;strokeColor=none;fillColor=none;align=left;verticalAlign=top;spacingLeft=4;spacingRight=4;overflow=hidden;rotatable=0;points=[[0,0.5],[1,0.5]];portConstraint=eastwest;" parent="-FZWjLYzuK2Z7sMCpY_u-94" vertex="1">
                    <mxGeometry y="26" width="110" height="26" as="geometry"/>
                </mxCell>
                <mxCell id="-FZWjLYzuK2Z7sMCpY_u-95" value="name: String" style="text;strokeColor=none;fillColor=none;align=left;verticalAlign=top;spacingLeft=4;spacingRight=4;overflow=hidden;rotatable=0;points=[[0,0.5],[1,0.5]];portConstraint=eastwest;" parent="-FZWjLYzuK2Z7sMCpY_u-94" vertex="1">
                    <mxGeometry y="52" width="110" height="26" as="geometry"/>
                </mxCell>
                <mxCell id="-FZWjLYzuK2Z7sMCpY_u-99" style="edgeStyle=orthogonalEdgeStyle;rounded=0;orthogonalLoop=1;jettySize=auto;html=1;exitX=0;exitY=0.5;exitDx=0;exitDy=0;entryX=0;entryY=0.25;entryDx=0;entryDy=0;startArrow=none;startFill=0;" parent="-FZWjLYzuK2Z7sMCpY_u-29" source="-FZWjLYzuK2Z7sMCpY_u-82" target="-FZWjLYzuK2Z7sMCpY_u-94" edge="1">
                    <mxGeometry relative="1" as="geometry"/>
                </mxCell>
                <mxCell id="-FZWjLYzuK2Z7sMCpY_u-106" value="N" style="edgeLabel;html=1;align=center;verticalAlign=middle;resizable=0;points=[];" parent="-FZWjLYzuK2Z7sMCpY_u-99" vertex="1" connectable="0">
                    <mxGeometry x="0.581" relative="1" as="geometry">
                        <mxPoint x="8" y="13" as="offset"/>
                    </mxGeometry>
                </mxCell>
                <mxCell id="-FZWjLYzuK2Z7sMCpY_u-100" style="edgeStyle=orthogonalEdgeStyle;rounded=0;orthogonalLoop=1;jettySize=auto;html=1;exitX=1;exitY=0.5;exitDx=0;exitDy=0;entryX=1;entryY=0.25;entryDx=0;entryDy=0;startArrow=none;startFill=0;" parent="-FZWjLYzuK2Z7sMCpY_u-29" source="-FZWjLYzuK2Z7sMCpY_u-81" target="-FZWjLYzuK2Z7sMCpY_u-87" edge="1">
                    <mxGeometry relative="1" as="geometry"/>
                </mxCell>
                <mxCell id="-FZWjLYzuK2Z7sMCpY_u-107" value="N" style="edgeLabel;html=1;align=center;verticalAlign=middle;resizable=0;points=[];" parent="-FZWjLYzuK2Z7sMCpY_u-100" vertex="1" connectable="0">
                    <mxGeometry x="0.7651" y="1" relative="1" as="geometry">
                        <mxPoint x="-4" y="12" as="offset"/>
                    </mxGeometry>
                </mxCell>
                <mxCell id="-FZWjLYzuK2Z7sMCpY_u-101" style="edgeStyle=orthogonalEdgeStyle;rounded=0;orthogonalLoop=1;jettySize=auto;html=1;exitX=1;exitY=0.5;exitDx=0;exitDy=0;entryX=0.003;entryY=0.115;entryDx=0;entryDy=0;entryPerimeter=0;startArrow=none;startFill=0;" parent="-FZWjLYzuK2Z7sMCpY_u-29" source="-FZWjLYzuK2Z7sMCpY_u-57" target="-FZWjLYzuK2Z7sMCpY_u-78" edge="1">
                    <mxGeometry relative="1" as="geometry"/>
                </mxCell>
                <mxCell id="-FZWjLYzuK2Z7sMCpY_u-105" value="N" style="edgeLabel;html=1;align=center;verticalAlign=middle;resizable=0;points=[];" parent="-FZWjLYzuK2Z7sMCpY_u-101" vertex="1" connectable="0">
                    <mxGeometry x="0.9004" y="2" relative="1" as="geometry">
                        <mxPoint x="-4" y="-13" as="offset"/>
                    </mxGeometry>
                </mxCell>
            </root>
        </mxGraphModel>
    </diagram>
</mxfile>